<svg width="28" height="21" viewBox="0 0 28 21" fill="none" xmlns="http://www.w3.org/2000/svg">
<path d="M0.839458 5.77928C0.0188092 4.35787 0.505817 2.54033 1.92722 1.71968C3.34863 0.899027 5.16617 1.38604 5.98682 2.80744L13.7879 16.3193C14.6085 17.7407 14.1215 19.5582 12.7001 20.3789C11.2787 21.1995 9.46116 20.7125 8.64051 19.2911L0.839458 5.77928Z" fill="#16192C"/>
<path d="M12.0047 5.77928C11.1841 4.35787 11.6711 2.54033 13.0925 1.71968C14.5139 0.899027 16.3314 1.38604 17.1521 2.80744L24.9531 16.3193C25.7738 17.7407 25.2868 19.5582 23.8654 20.3789C22.444 21.1995 20.6264 20.7125 19.8058 19.2911L12.0047 5.77928Z" fill="#16192C"/>
<path d="M21.6841 3.2056C21.6841 1.5643 23.0146 0.233765 24.6559 0.233765C26.2972 0.233765 27.6277 1.5643 27.6277 3.2056C27.6277 4.8469 26.2972 6.17743 24.6559 6.17743C23.0146 6.17743 21.6841 4.8469 21.6841 3.2056Z" fill="#16192C"/>
</svg>
